<mxfile host="app.diagrams.net" agent="Mozilla/5.0 (Windows NT 10.0; Win64; x64) AppleWebKit/537.36 (KHTML, like Gecko) Chrome/139.0.0.0 Safari/537.36" version="28.1.0">
  <diagram name="Pagina-1" id="y9TlppjyEf53RtiNAtn1">
    <mxGraphModel dx="1601" dy="1872" grid="1" gridSize="10" guides="1" tooltips="1" connect="1" arrows="1" fold="1" page="1" pageScale="1" pageWidth="827" pageHeight="1169" math="0" shadow="0">
      <root>
        <mxCell id="0" />
        <mxCell id="1" parent="0" />
        <mxCell id="vog2MQybY8CkKpnvj9uA-33" style="edgeStyle=orthogonalEdgeStyle;rounded=0;orthogonalLoop=1;jettySize=auto;html=1;entryX=0;entryY=0.5;entryDx=0;entryDy=0;" parent="1" source="vog2MQybY8CkKpnvj9uA-1" target="vog2MQybY8CkKpnvj9uA-27" edge="1">
          <mxGeometry relative="1" as="geometry">
            <Array as="points">
              <mxPoint x="590" y="410" />
              <mxPoint x="590" y="110" />
            </Array>
          </mxGeometry>
        </mxCell>
        <mxCell id="vog2MQybY8CkKpnvj9uA-34" value="GetTime()&lt;div&gt;IncreaseTime()&lt;/div&gt;" style="edgeLabel;html=1;align=center;verticalAlign=middle;resizable=0;points=[];" parent="vog2MQybY8CkKpnvj9uA-33" vertex="1" connectable="0">
          <mxGeometry x="-0.72" y="1" relative="1" as="geometry">
            <mxPoint x="1" y="-14" as="offset" />
          </mxGeometry>
        </mxCell>
        <mxCell id="vog2MQybY8CkKpnvj9uA-49" style="edgeStyle=orthogonalEdgeStyle;rounded=0;orthogonalLoop=1;jettySize=auto;html=1;exitX=0.25;exitY=1;exitDx=0;exitDy=0;entryX=0.25;entryY=0;entryDx=0;entryDy=0;" parent="1" source="vog2MQybY8CkKpnvj9uA-1" target="vog2MQybY8CkKpnvj9uA-6" edge="1">
          <mxGeometry relative="1" as="geometry" />
        </mxCell>
        <mxCell id="vog2MQybY8CkKpnvj9uA-50" value="MakeSound()" style="edgeLabel;html=1;align=center;verticalAlign=middle;resizable=0;points=[];" parent="vog2MQybY8CkKpnvj9uA-49" vertex="1" connectable="0">
          <mxGeometry x="-0.032" y="-1" relative="1" as="geometry">
            <mxPoint as="offset" />
          </mxGeometry>
        </mxCell>
        <mxCell id="vog2MQybY8CkKpnvj9uA-1" value="&amp;lt;&amp;lt;control&amp;gt;&amp;gt;&lt;div&gt;OperationControl&lt;/div&gt;" style="rounded=0;whiteSpace=wrap;html=1;" parent="1" vertex="1">
          <mxGeometry x="610" y="380" width="120" height="60" as="geometry" />
        </mxCell>
        <mxCell id="vog2MQybY8CkKpnvj9uA-11" style="edgeStyle=orthogonalEdgeStyle;rounded=0;orthogonalLoop=1;jettySize=auto;html=1;entryX=0.5;entryY=1;entryDx=0;entryDy=0;" parent="1" source="vog2MQybY8CkKpnvj9uA-2" target="vog2MQybY8CkKpnvj9uA-5" edge="1">
          <mxGeometry relative="1" as="geometry" />
        </mxCell>
        <mxCell id="vog2MQybY8CkKpnvj9uA-12" value="showMenu()" style="edgeLabel;html=1;align=center;verticalAlign=middle;resizable=0;points=[];" parent="vog2MQybY8CkKpnvj9uA-11" vertex="1" connectable="0">
          <mxGeometry x="-0.2267" y="1" relative="1" as="geometry">
            <mxPoint x="1" as="offset" />
          </mxGeometry>
        </mxCell>
        <mxCell id="GNJo7rJGvy5pioMQCngX-1" style="edgeStyle=orthogonalEdgeStyle;rounded=0;orthogonalLoop=1;jettySize=auto;html=1;entryX=0.5;entryY=1;entryDx=0;entryDy=0;" parent="1" source="vog2MQybY8CkKpnvj9uA-2" target="vog2MQybY8CkKpnvj9uA-3" edge="1">
          <mxGeometry relative="1" as="geometry">
            <Array as="points">
              <mxPoint x="420" y="110" />
              <mxPoint x="530" y="110" />
            </Array>
          </mxGeometry>
        </mxCell>
        <mxCell id="GNJo7rJGvy5pioMQCngX-2" value="ChangeTimeSetting()" style="edgeLabel;html=1;align=center;verticalAlign=middle;resizable=0;points=[];" parent="GNJo7rJGvy5pioMQCngX-1" vertex="1" connectable="0">
          <mxGeometry x="0.3263" y="-1" relative="1" as="geometry">
            <mxPoint y="9" as="offset" />
          </mxGeometry>
        </mxCell>
        <mxCell id="GNJo7rJGvy5pioMQCngX-3" style="edgeStyle=orthogonalEdgeStyle;rounded=0;orthogonalLoop=1;jettySize=auto;html=1;entryX=0.5;entryY=0;entryDx=0;entryDy=0;" parent="1" source="vog2MQybY8CkKpnvj9uA-2" target="vog2MQybY8CkKpnvj9uA-4" edge="1">
          <mxGeometry relative="1" as="geometry" />
        </mxCell>
        <mxCell id="GNJo7rJGvy5pioMQCngX-4" value="ChangeAlarmSetting()" style="edgeLabel;html=1;align=center;verticalAlign=middle;resizable=0;points=[];" parent="GNJo7rJGvy5pioMQCngX-3" vertex="1" connectable="0">
          <mxGeometry x="-0.12" y="2" relative="1" as="geometry">
            <mxPoint as="offset" />
          </mxGeometry>
        </mxCell>
        <mxCell id="vog2MQybY8CkKpnvj9uA-2" value="&amp;lt;&amp;lt;control&amp;gt;&amp;gt;&lt;div&gt;InstelControl&lt;/div&gt;" style="rounded=0;whiteSpace=wrap;html=1;" parent="1" vertex="1">
          <mxGeometry x="310" y="150" width="120" height="60" as="geometry" />
        </mxCell>
        <mxCell id="vog2MQybY8CkKpnvj9uA-13" style="edgeStyle=orthogonalEdgeStyle;rounded=0;orthogonalLoop=1;jettySize=auto;html=1;entryX=0.5;entryY=0;entryDx=0;entryDy=0;exitX=0.5;exitY=0;exitDx=0;exitDy=0;" parent="1" source="vog2MQybY8CkKpnvj9uA-3" target="vog2MQybY8CkKpnvj9uA-5" edge="1">
          <mxGeometry relative="1" as="geometry">
            <Array as="points">
              <mxPoint x="530" y="-20" />
              <mxPoint x="370" y="-20" />
            </Array>
          </mxGeometry>
        </mxCell>
        <mxCell id="vog2MQybY8CkKpnvj9uA-14" value="showTime(Time)" style="edgeLabel;html=1;align=center;verticalAlign=middle;resizable=0;points=[];" parent="vog2MQybY8CkKpnvj9uA-13" vertex="1" connectable="0">
          <mxGeometry x="-0.3453" y="-1" relative="1" as="geometry">
            <mxPoint x="-41" y="-9" as="offset" />
          </mxGeometry>
        </mxCell>
        <mxCell id="vog2MQybY8CkKpnvj9uA-29" style="edgeStyle=orthogonalEdgeStyle;rounded=0;orthogonalLoop=1;jettySize=auto;html=1;exitX=1;exitY=0.5;exitDx=0;exitDy=0;entryX=0.5;entryY=0;entryDx=0;entryDy=0;" parent="1" source="vog2MQybY8CkKpnvj9uA-3" target="vog2MQybY8CkKpnvj9uA-27" edge="1">
          <mxGeometry relative="1" as="geometry" />
        </mxCell>
        <mxCell id="vog2MQybY8CkKpnvj9uA-3" value="&amp;lt;&amp;lt;control&amp;gt;&amp;gt;&lt;div&gt;TijdInstelControl&lt;/div&gt;" style="rounded=0;whiteSpace=wrap;html=1;" parent="1" vertex="1">
          <mxGeometry x="470" y="10" width="120" height="60" as="geometry" />
        </mxCell>
        <mxCell id="vog2MQybY8CkKpnvj9uA-35" style="edgeStyle=orthogonalEdgeStyle;rounded=0;orthogonalLoop=1;jettySize=auto;html=1;entryX=0;entryY=0.5;entryDx=0;entryDy=0;" parent="1" source="vog2MQybY8CkKpnvj9uA-4" target="vog2MQybY8CkKpnvj9uA-5" edge="1">
          <mxGeometry relative="1" as="geometry">
            <Array as="points">
              <mxPoint x="250" y="310" />
              <mxPoint x="250" y="30" />
            </Array>
          </mxGeometry>
        </mxCell>
        <mxCell id="vog2MQybY8CkKpnvj9uA-40" value="showTime(Time)" style="edgeLabel;html=1;align=center;verticalAlign=middle;resizable=0;points=[];" parent="vog2MQybY8CkKpnvj9uA-35" vertex="1" connectable="0">
          <mxGeometry x="-0.3056" y="3" relative="1" as="geometry">
            <mxPoint as="offset" />
          </mxGeometry>
        </mxCell>
        <mxCell id="vog2MQybY8CkKpnvj9uA-41" style="edgeStyle=orthogonalEdgeStyle;rounded=0;orthogonalLoop=1;jettySize=auto;html=1;entryX=0.5;entryY=1;entryDx=0;entryDy=0;" parent="1" source="vog2MQybY8CkKpnvj9uA-4" target="vog2MQybY8CkKpnvj9uA-27" edge="1">
          <mxGeometry relative="1" as="geometry" />
        </mxCell>
        <mxCell id="GNJo7rJGvy5pioMQCngX-5" value="GetTime()&lt;div&gt;SetTime()&lt;/div&gt;&lt;div&gt;&lt;div&gt;IncreaseTime()&lt;/div&gt;&lt;div&gt;DecreaseTime()&lt;/div&gt;&lt;/div&gt;" style="edgeLabel;html=1;align=center;verticalAlign=middle;resizable=0;points=[];" parent="vog2MQybY8CkKpnvj9uA-41" vertex="1" connectable="0">
          <mxGeometry x="-0.7017" y="-1" relative="1" as="geometry">
            <mxPoint x="11" y="-31" as="offset" />
          </mxGeometry>
        </mxCell>
        <mxCell id="vog2MQybY8CkKpnvj9uA-4" value="&amp;lt;&amp;lt;control&amp;gt;&amp;gt;&lt;div&gt;AlarmInstelControl&lt;/div&gt;" style="rounded=0;whiteSpace=wrap;html=1;" parent="1" vertex="1">
          <mxGeometry x="310" y="270" width="120" height="60" as="geometry" />
        </mxCell>
        <mxCell id="vog2MQybY8CkKpnvj9uA-5" value="&amp;lt;&amp;lt;boundary&amp;gt;&amp;gt;&lt;div&gt;Display&lt;/div&gt;" style="rounded=0;whiteSpace=wrap;html=1;" parent="1" vertex="1">
          <mxGeometry x="310" width="120" height="60" as="geometry" />
        </mxCell>
        <mxCell id="vog2MQybY8CkKpnvj9uA-6" value="&amp;lt;&amp;lt;boundary&amp;gt;&amp;gt;&lt;div&gt;Buzzer&lt;/div&gt;" style="rounded=0;whiteSpace=wrap;html=1;" parent="1" vertex="1">
          <mxGeometry x="610" y="470" width="120" height="60" as="geometry" />
        </mxCell>
        <mxCell id="vog2MQybY8CkKpnvj9uA-8" style="edgeStyle=orthogonalEdgeStyle;rounded=0;orthogonalLoop=1;jettySize=auto;html=1;entryX=1;entryY=0.5;entryDx=0;entryDy=0;" parent="1" source="vog2MQybY8CkKpnvj9uA-7" target="vog2MQybY8CkKpnvj9uA-2" edge="1">
          <mxGeometry relative="1" as="geometry" />
        </mxCell>
        <mxCell id="vog2MQybY8CkKpnvj9uA-10" value="MessageReceived(Message)" style="edgeLabel;html=1;align=center;verticalAlign=middle;resizable=0;points=[];" parent="vog2MQybY8CkKpnvj9uA-8" vertex="1" connectable="0">
          <mxGeometry x="0.0567" y="-1" relative="1" as="geometry">
            <mxPoint x="15" y="11" as="offset" />
          </mxGeometry>
        </mxCell>
        <mxCell id="vog2MQybY8CkKpnvj9uA-7" value="&amp;lt;&amp;lt;control&amp;gt;&amp;gt;&lt;div&gt;NecReceiver&lt;/div&gt;" style="rounded=0;whiteSpace=wrap;html=1;" parent="1" vertex="1">
          <mxGeometry x="790" y="150" width="120" height="60" as="geometry" />
        </mxCell>
        <mxCell id="vog2MQybY8CkKpnvj9uA-27" value="&amp;lt;&amp;lt;entity&amp;gt;&amp;gt;&lt;div&gt;Time&lt;/div&gt;" style="rounded=0;whiteSpace=wrap;html=1;" parent="1" vertex="1">
          <mxGeometry x="670" y="80" width="120" height="60" as="geometry" />
        </mxCell>
        <mxCell id="vog2MQybY8CkKpnvj9uA-53" style="edgeStyle=orthogonalEdgeStyle;rounded=0;orthogonalLoop=1;jettySize=auto;html=1;entryX=1;entryY=0.5;entryDx=0;entryDy=0;" parent="1" source="vog2MQybY8CkKpnvj9uA-51" target="vog2MQybY8CkKpnvj9uA-7" edge="1">
          <mxGeometry relative="1" as="geometry" />
        </mxCell>
        <mxCell id="vog2MQybY8CkKpnvj9uA-57" value="SignalDetected(t_signalUs)&lt;div&gt;PasueDetected(t_pauseUs)&lt;/div&gt;" style="edgeLabel;html=1;align=center;verticalAlign=middle;resizable=0;points=[];" parent="vog2MQybY8CkKpnvj9uA-53" vertex="1" connectable="0">
          <mxGeometry x="-0.0192" relative="1" as="geometry">
            <mxPoint as="offset" />
          </mxGeometry>
        </mxCell>
        <mxCell id="vog2MQybY8CkKpnvj9uA-51" value="&amp;lt;&amp;lt;control&amp;gt;&amp;gt;&lt;div&gt;PauseDetector&lt;/div&gt;" style="rounded=0;whiteSpace=wrap;html=1;" parent="1" vertex="1">
          <mxGeometry x="1070" y="150" width="120" height="60" as="geometry" />
        </mxCell>
        <mxCell id="GNJo7rJGvy5pioMQCngX-6" value="GetTime()&lt;div&gt;SetTime()&lt;/div&gt;&lt;div&gt;&lt;div&gt;IncreaseTime()&lt;/div&gt;&lt;div&gt;DecreaseTime()&lt;/div&gt;&lt;/div&gt;" style="edgeLabel;html=1;align=center;verticalAlign=middle;resizable=0;points=[];" parent="1" vertex="1" connectable="0">
          <mxGeometry x="700" y="10" as="geometry" />
        </mxCell>
      </root>
    </mxGraphModel>
  </diagram>
</mxfile>
